<svg width="440" height="385" viewBox="0 0 440 385" fill="none" xmlns="http://www.w3.org/2000/svg">
<g clip-path="url(#clip0_1_2146)">
<path d="M48 0.5H392C400.409 0.5 406.686 0.500389 411.663 0.907065C416.635 1.31326 420.266 2.12231 423.393 3.71531C428.944 6.54357 433.456 11.0565 436.285 16.6073C437.878 19.7337 438.687 23.3651 439.093 28.3368C439.5 33.3143 439.5 39.591 439.5 48V384.5H0.5V48C0.5 39.591 0.500389 33.3143 0.907065 28.3368C1.31326 23.3651 2.12231 19.7337 3.71531 16.6073C6.54357 11.0565 11.0565 6.54357 16.6073 3.71531C19.7337 2.12231 23.3651 1.31326 28.3368 0.907065C33.3143 0.500389 39.591 0.5 48 0.5Z" fill="white"/>
<rect x="16.5" y="32.5" width="407" height="352" rx="7.5" fill="white"/>
<circle cx="27" cy="44" r="2" fill="#D9D9D9"/>
<circle cx="34" cy="44" r="2" fill="#D9D9D9"/>
<circle cx="41" cy="44" r="2" fill="#D9D9D9"/>
<rect x="16.5" y="32.5" width="407" height="22" stroke="#EAEAEA"/>
<path d="M187.556 110.326L179.417 99.392C179.294 99.2288 179.172 99.0724 179.05 98.9228C178.941 98.7596 178.825 98.5964 178.703 98.4332H178.682L178.744 107.164C178.744 107.504 178.744 107.844 178.744 108.184C178.744 108.524 178.73 108.858 178.703 109.184C178.948 109.17 179.192 109.157 179.437 109.143C179.682 109.13 179.927 109.116 180.172 109.102V110H176.438V109.327C176.86 109.327 177.159 109.238 177.336 109.062C177.526 108.871 177.649 108.654 177.703 108.409C177.758 108.15 177.785 107.919 177.785 107.715L177.805 97.9028C177.805 97.6716 177.805 97.4404 177.805 97.2092C177.805 96.978 177.805 96.7536 177.805 96.536C177.588 96.5496 177.363 96.5632 177.132 96.5768C176.901 96.5904 176.67 96.604 176.438 96.6176V95.72H178.866L186.516 105.961C186.693 106.192 186.863 106.423 187.026 106.654C187.203 106.886 187.38 107.117 187.556 107.348H187.577L187.597 98.0048C187.597 97.7328 187.604 97.4744 187.618 97.2296C187.631 96.9712 187.645 96.74 187.658 96.536C187.414 96.5496 187.169 96.5632 186.924 96.5768C186.679 96.5904 186.434 96.604 186.19 96.6176V95.72H189.943V96.3932C189.44 96.4068 189.093 96.5224 188.903 96.74C188.712 96.9576 188.61 97.25 188.597 97.6172C188.583 97.9844 188.576 98.4128 188.576 98.9024L188.536 110.326H187.556ZM196.45 110.326C195.511 110.326 194.661 110.109 193.9 109.674C193.152 109.225 192.56 108.599 192.125 107.797C191.69 106.981 191.472 106.022 191.472 104.92C191.472 103.968 191.683 103.078 192.105 102.248C192.54 101.418 193.145 100.752 193.92 100.249C194.695 99.732 195.593 99.4736 196.613 99.4736C197.184 99.4736 197.715 99.5688 198.204 99.7592C198.707 99.936 199.149 100.215 199.53 100.596C199.911 100.963 200.21 101.432 200.428 102.003C200.645 102.561 200.754 103.22 200.754 103.982L193.573 104.104C193.573 105.138 193.682 106.049 193.9 106.838C194.131 107.613 194.498 108.218 195.001 108.654C195.505 109.075 196.151 109.286 196.939 109.286C197.361 109.286 197.789 109.211 198.225 109.062C198.673 108.912 199.088 108.708 199.469 108.45C199.85 108.191 200.156 107.906 200.387 107.593L200.877 108.001C200.509 108.572 200.067 109.028 199.551 109.368C199.034 109.708 198.503 109.952 197.959 110.102C197.415 110.252 196.912 110.326 196.45 110.326ZM193.635 103.248H198.837C198.837 102.758 198.762 102.289 198.612 101.84C198.476 101.378 198.245 101.004 197.919 100.718C197.592 100.419 197.164 100.269 196.633 100.269C195.845 100.269 195.185 100.507 194.655 100.983C194.138 101.446 193.798 102.2 193.635 103.248ZM205.999 110.061L203.326 102.228C203.231 101.942 203.143 101.697 203.061 101.493C202.993 101.289 202.939 101.112 202.898 100.963C202.857 100.813 202.823 100.684 202.796 100.575L201.715 100.636V99.8H206.04V100.412C205.428 100.426 205.088 100.636 205.02 101.044C204.965 101.439 205.047 101.962 205.264 102.615L206.203 105.471C206.312 105.798 206.42 106.131 206.529 106.471C206.638 106.797 206.747 107.124 206.856 107.45C206.978 107.083 207.1 106.716 207.223 106.348C207.359 105.968 207.488 105.587 207.61 105.206L209.426 99.8H210.262L212.323 105.736C212.432 106.036 212.54 106.342 212.649 106.654C212.758 106.967 212.867 107.28 212.976 107.593C213.084 107.294 213.186 107.001 213.282 106.716C213.39 106.416 213.492 106.117 213.588 105.818L214.934 101.942C215.029 101.67 215.124 101.412 215.22 101.167C215.315 100.922 215.424 100.725 215.546 100.575L214.363 100.636V99.8H217.912V100.412C217.559 100.426 217.266 100.473 217.035 100.555C216.818 100.636 216.634 100.745 216.484 100.881C216.335 101.017 216.212 101.18 216.117 101.371C216.022 101.561 215.934 101.779 215.852 102.024L212.914 110.061H212.098L210.16 104.492C210.079 104.247 209.997 104.009 209.916 103.778C209.834 103.533 209.752 103.295 209.671 103.064C209.589 102.819 209.508 102.581 209.426 102.35C209.344 102.581 209.263 102.819 209.181 103.064C209.1 103.295 209.018 103.533 208.936 103.778C208.855 104.009 208.773 104.247 208.692 104.492L206.774 110.061H205.999ZM224.409 109.327C224.926 109.3 225.28 109.184 225.47 108.98C225.66 108.762 225.762 108.47 225.776 108.103C225.803 107.722 225.817 107.294 225.817 106.818V98.0048C225.817 97.7328 225.824 97.4744 225.837 97.2296C225.851 96.9712 225.864 96.74 225.878 96.536C225.633 96.5496 225.388 96.5632 225.144 96.5768C224.899 96.5904 224.654 96.604 224.409 96.6176V95.72C225.13 95.7064 225.871 95.6996 226.633 95.6996C227.394 95.686 228.17 95.6792 228.958 95.6792C230.278 95.6792 231.386 95.8288 232.284 96.128C233.181 96.4272 233.868 96.8692 234.344 97.454C234.82 98.0388 235.078 98.7664 235.119 99.6368C235.146 100.167 235.065 100.725 234.874 101.31C234.698 101.881 234.358 102.425 233.854 102.942C233.365 103.445 232.671 103.853 231.774 104.166C230.876 104.478 229.727 104.635 228.326 104.635C228.272 104.635 228.17 104.635 228.02 104.635C227.87 104.635 227.728 104.628 227.592 104.614V107.572C227.592 107.94 227.585 108.259 227.571 108.531C227.571 108.79 227.558 109.007 227.53 109.184C227.748 109.17 227.959 109.157 228.163 109.143C228.367 109.13 228.571 109.123 228.775 109.123C228.992 109.109 229.203 109.096 229.407 109.082V110H224.409V109.327ZM227.592 103.778C227.85 103.805 228.068 103.826 228.244 103.839C228.435 103.839 228.659 103.839 228.918 103.839C229.693 103.839 230.4 103.69 231.039 103.39C231.678 103.078 232.188 102.636 232.569 102.064C232.95 101.493 233.14 100.813 233.14 100.024C233.14 99.3852 233.038 98.8412 232.834 98.3924C232.63 97.93 232.338 97.5628 231.957 97.2908C231.59 97.0052 231.148 96.8012 230.631 96.6788C230.114 96.5428 229.543 96.4748 228.918 96.4748C228.442 96.4748 228.108 96.5768 227.918 96.7808C227.741 96.9848 227.639 97.2704 227.612 97.6376C227.598 97.9912 227.592 98.4128 227.592 98.9024V103.778ZM241.416 110.326C240.464 110.326 239.601 110.109 238.826 109.674C238.05 109.225 237.432 108.613 236.969 107.838C236.52 107.049 236.296 106.151 236.296 105.145C236.296 104.07 236.52 103.105 236.969 102.248C237.418 101.391 238.03 100.718 238.805 100.228C239.58 99.7252 240.451 99.4736 241.416 99.4736C242.368 99.4736 243.232 99.7048 244.007 100.167C244.782 100.616 245.401 101.228 245.864 102.003C246.326 102.778 246.557 103.662 246.557 104.655C246.557 105.702 246.326 106.661 245.864 107.532C245.415 108.388 244.803 109.068 244.028 109.572C243.252 110.075 242.382 110.326 241.416 110.326ZM241.58 109.51C242.3 109.51 242.872 109.306 243.293 108.898C243.715 108.49 244.014 107.96 244.191 107.307C244.381 106.654 244.476 105.968 244.476 105.247C244.476 104.635 244.415 104.036 244.293 103.452C244.184 102.853 244.007 102.316 243.762 101.84C243.518 101.35 243.198 100.963 242.804 100.677C242.423 100.392 241.96 100.249 241.416 100.249C240.709 100.249 240.131 100.453 239.682 100.861C239.234 101.269 238.9 101.799 238.683 102.452C238.479 103.105 238.377 103.805 238.377 104.553C238.377 105.396 238.492 106.199 238.724 106.96C238.955 107.708 239.308 108.32 239.784 108.796C240.26 109.272 240.859 109.51 241.58 109.51ZM252.472 110.326C251.792 110.326 251.187 110.231 250.657 110.041C250.126 109.864 249.691 109.66 249.351 109.429L249.433 110.143H248.576L248.454 106.634H249.086C249.113 107.192 249.27 107.695 249.555 108.144C249.841 108.579 250.208 108.919 250.657 109.164C251.106 109.408 251.588 109.531 252.105 109.531C252.459 109.531 252.806 109.476 253.146 109.368C253.486 109.245 253.771 109.068 254.002 108.837C254.234 108.592 254.349 108.286 254.349 107.919C254.349 107.538 254.234 107.226 254.002 106.981C253.785 106.722 253.492 106.498 253.125 106.308C252.758 106.117 252.364 105.94 251.942 105.777C251.534 105.614 251.126 105.444 250.718 105.267C250.31 105.09 249.929 104.88 249.576 104.635C249.236 104.39 248.964 104.091 248.76 103.737C248.556 103.384 248.454 102.948 248.454 102.432C248.454 102.146 248.508 101.833 248.617 101.493C248.726 101.153 248.909 100.834 249.168 100.534C249.426 100.222 249.78 99.97 250.228 99.7796C250.677 99.5756 251.248 99.4736 251.942 99.4736C252.309 99.4736 252.717 99.5348 253.166 99.6572C253.615 99.7796 254.05 100.011 254.472 100.351L254.431 99.5756H255.288V103.146H254.635C254.608 102.67 254.499 102.214 254.308 101.779C254.118 101.33 253.839 100.963 253.472 100.677C253.105 100.378 252.629 100.228 252.044 100.228C251.418 100.228 250.929 100.385 250.575 100.698C250.222 101.01 250.045 101.371 250.045 101.779C250.045 102.2 250.174 102.554 250.432 102.84C250.704 103.112 251.051 103.35 251.473 103.554C251.894 103.758 252.343 103.955 252.819 104.145C253.336 104.363 253.839 104.601 254.329 104.859C254.818 105.118 255.22 105.444 255.532 105.838C255.845 106.219 256.002 106.716 256.002 107.328C256.002 108.008 255.825 108.572 255.471 109.021C255.131 109.47 254.689 109.796 254.145 110C253.615 110.218 253.057 110.326 252.472 110.326ZM261.569 110.326C261.256 110.326 260.936 110.279 260.61 110.184C260.283 110.102 259.977 109.932 259.692 109.674C259.42 109.415 259.202 109.041 259.039 108.552C258.876 108.048 258.794 107.389 258.794 106.573L258.835 100.657L257.264 100.677V99.8C257.618 99.7864 257.978 99.6572 258.345 99.4124C258.713 99.154 259.039 98.8072 259.325 98.372C259.624 97.9368 259.828 97.4608 259.937 96.944H260.63V99.8H264.057V100.596L260.63 100.636L260.589 106.308C260.589 106.92 260.637 107.443 260.732 107.878C260.841 108.3 261.011 108.62 261.242 108.837C261.473 109.055 261.773 109.164 262.14 109.164C262.521 109.164 262.874 109.055 263.201 108.837C263.541 108.62 263.84 108.32 264.098 107.94L264.649 108.388C264.35 108.837 264.051 109.191 263.751 109.449C263.466 109.708 263.187 109.898 262.915 110.02C262.643 110.156 262.391 110.238 262.16 110.265C261.929 110.306 261.732 110.326 261.569 110.326Z" fill="#2E2E2E"/>
<path d="M155.652 129H154.771V121.549H157.171C157.537 121.549 157.867 121.587 158.162 121.664C158.458 121.74 158.72 121.856 158.949 122.012C159.178 122.168 159.356 122.378 159.482 122.64C159.608 122.902 159.672 123.208 159.672 123.556C159.672 123.845 159.645 124.104 159.592 124.333C159.539 124.559 159.447 124.772 159.318 124.971C159.188 125.17 159.019 125.336 158.81 125.469C158.601 125.598 158.332 125.701 158.003 125.778C157.678 125.851 157.299 125.887 156.868 125.887C156.526 125.887 156.12 125.866 155.652 125.822V129ZM156.952 125.125C157.278 125.125 157.557 125.094 157.789 125.031C158.021 124.967 158.199 124.889 158.322 124.796C158.448 124.704 158.546 124.582 158.616 124.433C158.689 124.283 158.734 124.147 158.75 124.025C158.767 123.898 158.775 123.747 158.775 123.571C158.775 123.15 158.632 122.839 158.347 122.64C158.065 122.441 157.679 122.341 157.191 122.341H155.652V125.115C156.293 125.122 156.726 125.125 156.952 125.125ZM162.002 129.1C161.471 129.1 161.094 128.957 160.872 128.671C160.653 128.386 160.543 127.889 160.543 127.182V121.415L161.37 121.365V126.853C161.37 127.079 161.372 127.26 161.375 127.396C161.382 127.532 161.395 127.667 161.415 127.8C161.435 127.929 161.461 128.027 161.494 128.094C161.528 128.16 161.576 128.221 161.639 128.278C161.702 128.331 161.777 128.367 161.863 128.387C161.953 128.404 162.062 128.412 162.192 128.412C162.298 128.412 162.507 128.392 162.819 128.353L162.864 129.015C162.522 129.071 162.235 129.1 162.002 129.1ZM166.52 124.547C166.277 124.255 165.944 124.109 165.519 124.109C165.094 124.109 164.747 124.26 164.478 124.562C164.209 124.861 164.051 125.271 164.005 125.793H166.888C166.888 125.251 166.765 124.836 166.52 124.547ZM165.683 129.115C164.889 129.115 164.264 128.862 163.805 128.358C163.35 127.853 163.123 127.162 163.123 126.286C163.123 125.439 163.344 124.753 163.785 124.229C164.227 123.701 164.808 123.432 165.529 123.422C166.206 123.422 166.742 123.654 167.137 124.119C167.536 124.581 167.735 125.198 167.735 125.972C167.735 126.012 167.733 126.085 167.73 126.191C167.73 126.297 167.73 126.374 167.73 126.42H163.98C163.99 127.041 164.149 127.526 164.458 127.874C164.77 128.22 165.188 128.392 165.713 128.392C166.291 128.392 166.87 128.24 167.451 127.934L167.581 128.607C167.026 128.945 166.394 129.115 165.683 129.115ZM170.409 128.442C170.805 128.442 171.152 128.334 171.45 128.118C171.753 127.899 171.947 127.605 172.033 127.237V126.316C172.016 126.316 171.915 126.324 171.729 126.34C171.547 126.357 171.427 126.367 171.371 126.37C170.65 126.433 170.147 126.551 169.862 126.724C169.579 126.897 169.438 127.174 169.438 127.556C169.438 127.848 169.525 128.069 169.697 128.218C169.87 128.367 170.107 128.442 170.409 128.442ZM172.217 129C172.168 128.787 172.119 128.558 172.073 128.313C171.771 128.615 171.487 128.824 171.221 128.94C170.956 129.056 170.644 129.115 170.285 129.115C169.774 129.115 169.362 128.982 169.05 128.716C168.741 128.447 168.587 128.062 168.587 127.561C168.587 127.003 168.797 126.589 169.219 126.321C169.644 126.052 170.255 125.884 171.052 125.817C171.162 125.808 171.326 125.794 171.545 125.778C171.767 125.758 171.933 125.743 172.043 125.733V125.25C172.043 124.865 171.953 124.579 171.774 124.393C171.595 124.207 171.313 124.114 170.927 124.114C170.39 124.114 169.847 124.247 169.299 124.513C169.282 124.473 169.239 124.358 169.169 124.169C169.1 123.976 169.063 123.877 169.06 123.87C169.302 123.734 169.589 123.626 169.921 123.546C170.257 123.463 170.597 123.422 170.942 123.422C171.623 123.422 172.113 123.571 172.412 123.87C172.714 124.166 172.865 124.67 172.865 125.384V129H172.217ZM175.928 129.115C175.556 129.115 175.212 129.075 174.897 128.995C174.585 128.915 174.331 128.812 174.135 128.686L174.239 127.984C174.794 128.279 175.338 128.427 175.873 128.427C176.683 128.427 177.1 128.142 177.123 127.571C177.123 127.328 177.037 127.137 176.864 126.998C176.691 126.858 176.353 126.702 175.848 126.53L175.435 126.385C174.957 126.226 174.615 126.028 174.409 125.793C174.206 125.557 174.103 125.263 174.1 124.911C174.1 124.483 174.271 124.127 174.613 123.845C174.958 123.563 175.43 123.422 176.027 123.422C176.645 123.422 177.208 123.541 177.716 123.78L177.472 124.418C176.957 124.205 176.476 124.099 176.027 124.099C175.679 124.099 175.405 124.169 175.206 124.308C175.01 124.445 174.912 124.637 174.912 124.886C174.912 125.099 174.983 125.261 175.126 125.374C175.269 125.487 175.554 125.617 175.983 125.763C176.092 125.803 176.23 125.849 176.396 125.902C176.947 126.081 177.337 126.294 177.566 126.54C177.795 126.782 177.91 127.111 177.91 127.526C177.903 128.03 177.722 128.422 177.367 128.701C177.012 128.977 176.532 129.115 175.928 129.115ZM182.198 124.547C181.956 124.255 181.622 124.109 181.197 124.109C180.772 124.109 180.425 124.26 180.156 124.562C179.887 124.861 179.73 125.271 179.683 125.793H182.567C182.567 125.251 182.444 124.836 182.198 124.547ZM181.362 129.115C180.568 129.115 179.942 128.862 179.484 128.358C179.029 127.853 178.802 127.162 178.802 126.286C178.802 125.439 179.022 124.753 179.464 124.229C179.906 123.701 180.487 123.432 181.207 123.422C181.884 123.422 182.421 123.654 182.816 124.119C183.214 124.581 183.413 125.198 183.413 125.972C183.413 126.012 183.412 126.085 183.408 126.191C183.408 126.297 183.408 126.374 183.408 126.42H179.658C179.668 127.041 179.828 127.526 180.136 127.874C180.448 128.22 180.867 128.392 181.391 128.392C181.969 128.392 182.549 128.24 183.13 127.934L183.259 128.607C182.705 128.945 182.072 129.115 181.362 129.115ZM184.4 130.385C184.41 130.288 184.438 130.033 184.484 129.618C184.534 129.206 184.572 128.859 184.599 128.577C184.625 128.294 184.645 128.047 184.659 127.835H185.64V128.054C185.477 128.711 185.238 129.488 184.923 130.385H184.4ZM192.787 124.547C192.544 124.255 192.211 124.109 191.786 124.109C191.361 124.109 191.014 124.26 190.745 124.562C190.476 124.861 190.318 125.271 190.272 125.793H193.155C193.155 125.251 193.032 124.836 192.787 124.547ZM191.95 129.115C191.156 129.115 190.531 128.862 190.072 128.358C189.617 127.853 189.39 127.162 189.39 126.286C189.39 125.439 189.611 124.753 190.052 124.229C190.494 123.701 191.075 123.432 191.796 123.422C192.473 123.422 193.009 123.654 193.404 124.119C193.803 124.581 194.002 125.198 194.002 125.972C194.002 126.012 194 126.085 193.997 126.191C193.997 126.297 193.997 126.374 193.997 126.42H190.247C190.257 127.041 190.416 127.526 190.725 127.874C191.037 128.22 191.455 128.392 191.98 128.392C192.558 128.392 193.137 128.24 193.718 127.934L193.848 128.607C193.293 128.945 192.661 129.115 191.95 129.115ZM195.157 129V123.536H195.855L195.959 124.318C196.175 124.049 196.444 123.834 196.766 123.671C197.091 123.505 197.442 123.422 197.817 123.422C198.448 123.422 198.914 123.6 199.216 123.955C199.519 124.307 199.67 124.85 199.67 125.583V129H198.838C198.838 126.809 198.836 125.635 198.833 125.479C198.82 125.014 198.725 124.674 198.549 124.458C198.376 124.242 198.086 124.134 197.678 124.134C197.249 124.134 196.892 124.237 196.607 124.443C196.321 124.649 196.135 124.916 196.049 125.245C196.016 125.467 195.999 125.723 195.999 126.012V129H195.157ZM202.797 129.1C202.26 129.1 201.878 128.968 201.652 128.706C201.426 128.444 201.307 128.021 201.293 127.436V124.154H200.482L200.516 123.606L201.288 123.536L201.572 122.286L202.12 122.266V123.536H203.639V124.154H202.12V127.287C202.12 127.702 202.183 127.994 202.309 128.163C202.436 128.333 202.651 128.417 202.957 128.417C203.066 128.417 203.304 128.391 203.669 128.338L203.704 128.995C203.309 129.065 203.007 129.1 202.797 129.1ZM207.678 124.547C207.436 124.255 207.102 124.109 206.677 124.109C206.252 124.109 205.905 124.26 205.636 124.562C205.367 124.861 205.21 125.271 205.163 125.793H208.047C208.047 125.251 207.924 124.836 207.678 124.547ZM206.842 129.115C206.048 129.115 205.422 128.862 204.964 128.358C204.509 127.853 204.282 127.162 204.282 126.286C204.282 125.439 204.502 124.753 204.944 124.229C205.386 123.701 205.967 123.432 206.687 123.422C207.365 123.422 207.901 123.654 208.296 124.119C208.694 124.581 208.894 125.198 208.894 125.972C208.894 126.012 208.892 126.085 208.889 126.191C208.889 126.297 208.889 126.374 208.889 126.42H205.138C205.148 127.041 205.308 127.526 205.616 127.874C205.928 128.22 206.347 128.392 206.871 128.392C207.449 128.392 208.029 128.24 208.61 127.934L208.739 128.607C208.185 128.945 207.552 129.115 206.842 129.115ZM212.499 123.487C212.649 123.487 212.785 123.497 212.908 123.517L212.878 124.283C212.725 124.257 212.592 124.244 212.479 124.244C212.015 124.244 211.636 124.406 211.344 124.732C211.055 125.054 210.911 125.454 210.911 125.932V129H210.079C210.076 125.646 210.074 123.825 210.074 123.536H210.766L210.846 124.518C211.035 124.209 211.276 123.96 211.568 123.771C211.86 123.581 212.171 123.487 212.499 123.487ZM217.893 128.442C218.288 128.442 218.635 128.334 218.934 128.118C219.236 127.899 219.431 127.605 219.517 127.237V126.316C219.5 126.316 219.399 126.324 219.213 126.34C219.03 126.357 218.911 126.367 218.854 126.37C218.134 126.433 217.631 126.551 217.345 126.724C217.063 126.897 216.922 127.174 216.922 127.556C216.922 127.848 217.008 128.069 217.181 128.218C217.354 128.367 217.591 128.442 217.893 128.442ZM219.701 129C219.651 128.787 219.603 128.558 219.557 128.313C219.255 128.615 218.971 128.824 218.705 128.94C218.439 129.056 218.127 129.115 217.769 129.115C217.257 129.115 216.846 128.982 216.534 128.716C216.225 128.447 216.07 128.062 216.07 127.561C216.07 127.003 216.281 126.589 216.703 126.321C217.128 126.052 217.739 125.884 218.536 125.817C218.645 125.808 218.81 125.794 219.029 125.778C219.251 125.758 219.417 125.743 219.527 125.733V125.25C219.527 124.865 219.437 124.579 219.258 124.393C219.079 124.207 218.796 124.114 218.411 124.114C217.873 124.114 217.33 124.247 216.783 124.513C216.766 124.473 216.723 124.358 216.653 124.169C216.583 123.976 216.547 123.877 216.544 123.87C216.786 123.734 217.073 123.626 217.405 123.546C217.741 123.463 218.081 123.422 218.426 123.422C219.107 123.422 219.597 123.571 219.895 123.87C220.198 124.166 220.349 124.67 220.349 125.384V129H219.701ZM221.783 129V123.536H222.48L222.585 124.318C222.801 124.049 223.07 123.834 223.392 123.671C223.717 123.505 224.067 123.422 224.443 123.422C225.073 123.422 225.54 123.6 225.842 123.955C226.144 124.307 226.295 124.85 226.295 125.583V129H225.464C225.464 126.809 225.462 125.635 225.459 125.479C225.445 125.014 225.351 124.674 225.175 124.458C225.002 124.242 224.712 124.134 224.303 124.134C223.875 124.134 223.518 124.237 223.232 124.443C222.947 124.649 222.761 124.916 222.674 125.245C222.641 125.467 222.625 125.723 222.625 126.012V129H221.783ZM226.983 123.536H227.864L229.587 128.084L231.121 123.536H232.003C230.529 127.594 229.767 129.686 229.717 129.812C229.488 130.386 229.211 130.806 228.885 131.072C228.56 131.341 228.131 131.475 227.6 131.475C227.441 131.475 227.273 131.462 227.097 131.435L227.047 130.728C227.233 130.742 227.373 130.748 227.466 130.748C227.841 130.748 228.125 130.678 228.317 130.539C228.513 130.403 228.688 130.146 228.84 129.767C228.976 129.418 229.078 129.149 229.144 128.96L226.983 123.536ZM237.452 128.397C237.999 128.397 238.406 128.221 238.672 127.869C238.941 127.517 239.075 127.014 239.075 126.36C239.075 125.623 238.946 125.069 238.687 124.697C238.431 124.322 238.016 124.134 237.442 124.134C237.186 124.134 236.96 124.189 236.764 124.298C236.568 124.408 236.411 124.561 236.291 124.757C236.172 124.953 236.08 125.178 236.017 125.434C235.957 125.686 235.928 125.964 235.928 126.266C235.928 126.691 235.979 127.059 236.082 127.371C236.188 127.683 236.358 127.933 236.59 128.118C236.822 128.304 237.11 128.397 237.452 128.397ZM239.09 128.208C238.911 128.484 238.672 128.703 238.373 128.866C238.074 129.028 237.74 129.11 237.372 129.11C236.651 129.11 236.087 128.854 235.678 128.343C235.27 127.828 235.066 127.129 235.066 126.246C235.066 125.402 235.273 124.722 235.688 124.204C236.103 123.683 236.66 123.422 237.357 123.422C237.719 123.422 238.059 123.502 238.378 123.661C238.7 123.817 238.941 124.028 239.1 124.293L239.085 123.82V121.415L239.907 121.365V129H239.2L239.09 128.208ZM244.504 124.547C244.262 124.255 243.928 124.109 243.503 124.109C243.078 124.109 242.731 124.26 242.462 124.562C242.193 124.861 242.035 125.271 241.989 125.793H244.872C244.872 125.251 244.75 124.836 244.504 124.547ZM243.667 129.115C242.874 129.115 242.248 128.862 241.79 128.358C241.335 127.853 241.107 127.162 241.107 126.286C241.107 125.439 241.328 124.753 241.77 124.229C242.211 123.701 242.792 123.432 243.513 123.422C244.19 123.422 244.726 123.654 245.121 124.119C245.52 124.581 245.719 125.198 245.719 125.972C245.719 126.012 245.717 126.085 245.714 126.191C245.714 126.297 245.714 126.374 245.714 126.42H241.964C241.974 127.041 242.133 127.526 242.442 127.874C242.754 128.22 243.172 128.392 243.697 128.392C244.275 128.392 244.854 128.24 245.435 127.934L245.565 128.607C245.01 128.945 244.378 129.115 243.667 129.115ZM248.503 129.115C248.131 129.115 247.788 129.075 247.472 128.995C247.16 128.915 246.906 128.812 246.71 128.686L246.815 127.984C247.369 128.279 247.914 128.427 248.448 128.427C249.259 128.427 249.675 128.142 249.699 127.571C249.699 127.328 249.612 127.137 249.44 126.998C249.267 126.858 248.928 126.702 248.424 126.53L248.01 126.385C247.532 126.226 247.19 126.028 246.984 125.793C246.782 125.557 246.679 125.263 246.675 124.911C246.675 124.483 246.846 124.127 247.188 123.845C247.534 123.563 248.005 123.422 248.603 123.422C249.22 123.422 249.783 123.541 250.291 123.78L250.047 124.418C249.533 124.205 249.051 124.099 248.603 124.099C248.254 124.099 247.98 124.169 247.781 124.308C247.585 124.445 247.487 124.637 247.487 124.886C247.487 125.099 247.559 125.261 247.701 125.374C247.844 125.487 248.13 125.617 248.558 125.763C248.668 125.803 248.805 125.849 248.971 125.902C249.523 126.081 249.913 126.294 250.142 126.54C250.371 126.782 250.485 127.111 250.485 127.526C250.479 128.03 250.298 128.422 249.943 128.701C249.587 128.977 249.108 129.115 248.503 129.115ZM253.937 129.115C253.133 129.115 252.504 128.854 252.049 128.333C251.598 127.811 251.372 127.129 251.372 126.286C251.375 125.436 251.606 124.747 252.064 124.219C252.526 123.687 253.157 123.422 253.957 123.422C254.239 123.422 254.511 123.457 254.774 123.526C255.039 123.596 255.248 123.687 255.401 123.8L255.172 124.448C254.784 124.239 254.374 124.134 253.942 124.134C253.414 124.134 252.996 124.327 252.687 124.712C252.381 125.097 252.229 125.623 252.229 126.291C252.229 126.941 252.38 127.458 252.682 127.84C252.987 128.218 253.409 128.407 253.947 128.407C254.375 128.407 254.813 128.291 255.262 128.059L255.366 128.721C255.004 128.983 254.528 129.115 253.937 129.115ZM258.897 123.487C259.047 123.487 259.183 123.497 259.306 123.517L259.276 124.283C259.123 124.257 258.99 124.244 258.878 124.244C258.413 124.244 258.034 124.406 257.742 124.732C257.453 125.054 257.309 125.454 257.309 125.932V129H256.477C256.474 125.646 256.472 123.825 256.472 123.536H257.164L257.244 124.518C257.433 124.209 257.674 123.96 257.966 123.771C258.258 123.581 258.569 123.487 258.897 123.487ZM261.144 123.536V129H260.307V123.536H261.144ZM261.144 121.549V122.535H260.307V121.549H261.144ZM262.712 131.371V123.536H263.445L263.524 124.279C264.002 123.707 264.577 123.422 265.248 123.422C265.746 123.422 266.167 123.546 266.513 123.795C266.858 124.044 267.112 124.381 267.275 124.806C267.441 125.231 267.524 125.728 267.524 126.296C267.524 126.84 267.434 127.325 267.255 127.75C267.075 128.172 266.811 128.505 266.463 128.751C266.117 128.993 265.712 129.115 265.248 129.115C264.896 129.115 264.565 129.037 264.256 128.88C263.948 128.721 263.7 128.512 263.514 128.253C263.534 128.612 263.544 128.96 263.544 129.299V131.316L262.712 131.371ZM265.133 128.412C265.385 128.412 265.611 128.356 265.81 128.243C266.01 128.127 266.171 127.969 266.293 127.77C266.416 127.571 266.509 127.345 266.572 127.092C266.635 126.837 266.667 126.561 266.667 126.266C266.667 125.642 266.536 125.13 266.274 124.732C266.011 124.33 265.628 124.129 265.123 124.129C264.067 124.129 263.539 124.811 263.539 126.176C263.539 126.917 263.662 127.474 263.908 127.85C264.157 128.225 264.565 128.412 265.133 128.412ZM270.442 129.1C269.904 129.1 269.522 128.968 269.297 128.706C269.071 128.444 268.951 128.021 268.938 127.436V124.154H268.126L268.161 123.606L268.933 123.536L269.217 122.286L269.765 122.266V123.536H271.284V124.154H269.765V127.287C269.765 127.702 269.828 127.994 269.954 128.163C270.08 128.333 270.296 128.417 270.602 128.417C270.711 128.417 270.949 128.391 271.314 128.338L271.349 128.995C270.954 129.065 270.651 129.1 270.442 129.1ZM273.216 123.536V129H272.38V123.536H273.216ZM273.216 121.549V122.535H272.38V121.549H273.216ZM275.393 126.281C275.393 126.928 275.536 127.448 275.821 127.84C276.11 128.228 276.53 128.422 277.081 128.422C277.626 128.422 278.036 128.228 278.311 127.84C278.59 127.451 278.73 126.928 278.73 126.271C278.73 125.603 278.592 125.079 278.316 124.697C278.044 124.312 277.627 124.119 277.066 124.119C276.522 124.119 276.107 124.315 275.821 124.707C275.536 125.099 275.393 125.623 275.393 126.281ZM279.591 126.266C279.591 127.112 279.366 127.8 278.914 128.328C278.462 128.852 277.838 129.115 277.041 129.115C276.274 129.115 275.663 128.849 275.208 128.318C274.757 127.786 274.531 127.104 274.531 126.271C274.531 125.421 274.759 124.733 275.213 124.209C275.668 123.684 276.293 123.422 277.086 123.422C277.866 123.422 278.479 123.686 278.924 124.214C279.369 124.738 279.591 125.422 279.591 126.266ZM280.772 129V123.536H281.469L281.574 124.318C281.789 124.049 282.058 123.834 282.38 123.671C282.706 123.505 283.056 123.422 283.431 123.422C284.062 123.422 284.529 123.6 284.831 123.955C285.133 124.307 285.284 124.85 285.284 125.583V129H284.452C284.452 126.809 284.451 125.635 284.447 125.479C284.434 125.014 284.339 124.674 284.163 124.458C283.991 124.242 283.7 124.134 283.292 124.134C282.863 124.134 282.507 124.237 282.221 124.443C281.935 124.649 281.75 124.916 281.663 125.245C281.63 125.467 281.613 125.723 281.613 126.012V129H280.772Z" fill="#2E2E2E" fill-opacity="0.63"/>
<rect width="408" height="160" transform="translate(16 167)" fill="#F7F7F7"/>
<rect x="16.5" y="32.5" width="407" height="352" rx="7.5" stroke="#EAEAEA"/>
<rect width="440" height="72" transform="translate(0 313)" fill="url(#paint0_linear_1_2146)"/>
<rect width="119" height="385" transform="translate(321)" fill="url(#paint1_linear_1_2146)"/>
<path d="M48 0.5H392C400.409 0.5 406.686 0.500389 411.663 0.907065C416.635 1.31326 420.266 2.12231 423.393 3.71531C428.944 6.54357 433.456 11.0565 436.285 16.6073C437.878 19.7337 438.687 23.3651 439.093 28.3368C439.5 33.3143 439.5 39.591 439.5 48V384.5H0.5V48C0.5 39.591 0.500389 33.3143 0.907065 28.3368C1.31326 23.3651 2.12231 19.7337 3.71531 16.6073C6.54357 11.0565 11.0565 6.54357 16.6073 3.71531C19.7337 2.12231 23.3651 1.31326 28.3368 0.907065C33.3143 0.500389 39.591 0.5 48 0.5Z" stroke="#D3D3D3"/>
</g>
<defs>
<linearGradient id="paint0_linear_1_2146" x1="220" y1="0" x2="220" y2="72" gradientUnits="userSpaceOnUse">
<stop stop-color="white" stop-opacity="0"/>
<stop offset="1" stop-color="white"/>
</linearGradient>
<linearGradient id="paint1_linear_1_2146" x1="-7.54725e-07" y1="140" x2="100.819" y2="140" gradientUnits="userSpaceOnUse">
<stop stop-color="white" stop-opacity="0"/>
<stop offset="1" stop-color="white"/>
</linearGradient>
<clipPath id="clip0_1_2146">
<rect width="440" height="385" fill="white"/>
</clipPath>
</defs>
</svg>
