<svg width="20" height="22" viewBox="0 0 20 22" fill="none" xmlns="http://www.w3.org/2000/svg">
<path fill-rule="evenodd" clip-rule="evenodd" d="M6.93934 1.93934C7.22064 1.65804 7.60218 1.5 8 1.5H12C12.3978 1.5 12.7794 1.65804 13.0607 1.93934C13.342 2.22064 13.5 2.60218 13.5 3V4.5H6.5V3C6.5 2.60218 6.65804 2.22064 6.93934 1.93934ZM5.5 4.5V3C5.5 2.33696 5.76339 1.70107 6.23223 1.23223C6.70107 0.763392 7.33696 0.5 8 0.5H12C12.663 0.5 13.2989 0.763392 13.7678 1.23223C14.2366 1.70107 14.5 2.33696 14.5 3V4.5H17H19C19.2761 4.5 19.5 4.72386 19.5 5C19.5 5.27614 19.2761 5.5 19 5.5H17.5V19C17.5 19.663 17.2366 20.2989 16.7678 20.7678C16.2989 21.2366 15.663 21.5 15 21.5H5C4.33696 21.5 3.70107 21.2366 3.23223 20.7678C2.76339 20.2989 2.5 19.663 2.5 19V5.5H1C0.723858 5.5 0.5 5.27614 0.5 5C0.5 4.72386 0.723858 4.5 1 4.5H3H5.5ZM3.5 5.5H6H14H16.5V19C16.5 19.3978 16.342 19.7794 16.0607 20.0607C15.7794 20.342 15.3978 20.5 15 20.5H5C4.60218 20.5 4.22064 20.342 3.93934 20.0607C3.65804 19.7794 3.5 19.3978 3.5 19V5.5ZM8 9.5C8.27614 9.5 8.5 9.72386 8.5 10V16C8.5 16.2761 8.27614 16.5 8 16.5C7.72386 16.5 7.5 16.2761 7.5 16V10C7.5 9.72386 7.72386 9.5 8 9.5ZM12.5 10C12.5 9.72386 12.2761 9.5 12 9.5C11.7239 9.5 11.5 9.72386 11.5 10V16C11.5 16.2761 11.7239 16.5 12 16.5C12.2761 16.5 12.5 16.2761 12.5 16V10Z" fill="#E86961"/>
</svg>
