<svg width="560" height="160" viewBox="0 0 560 160" fill="none" xmlns="http://www.w3.org/2000/svg">
<rect x="0.5" y="0.5" width="559" height="159" rx="5.5" fill="#F7F7F7"/>
<path d="M260 87C260 87.5304 259.789 88.0391 259.414 88.4142C259.039 88.7893 258.53 89 258 89H240C239.47 89 238.961 88.7893 238.586 88.4142C238.211 88.0391 238 87.5304 238 87V76C238 75.4696 238.211 74.9609 238.586 74.5858C238.961 74.2107 239.47 74 240 74H244L246 71H252L254 74H258C258.53 74 259.039 74.2107 259.414 74.5858C259.789 74.9609 260 75.4696 260 76V87Z" stroke="black" stroke-linecap="round" stroke-linejoin="round"/>
<path d="M249 85C251.209 85 253 83.2091 253 81C253 78.7909 251.209 77 249 77C246.791 77 245 78.7909 245 81C245 83.2091 246.791 85 249 85Z" stroke="black" stroke-linecap="round" stroke-linejoin="round"/>
<path d="M279.281 74.4453V81.9453C279.281 83.2734 278.917 84.3099 278.188 85.0547C277.464 85.7995 276.359 86.1719 274.875 86.1719C273.391 86.1719 272.294 85.7995 271.586 85.0547C270.878 84.3099 270.523 83.2682 270.523 81.9297V74.4453H271.883V81.9531C271.883 83 272.13 83.7708 272.625 84.2656C273.12 84.7604 273.885 85.0078 274.922 85.0078C275.932 85.0078 276.685 84.7578 277.18 84.2578C277.68 83.7578 277.93 82.987 277.93 81.9453V74.4453H279.281ZM281.656 89.7188V77.4297H282.805L282.93 78.5938C283.68 77.6979 284.581 77.25 285.633 77.25C286.414 77.25 287.076 77.4453 287.617 77.8359C288.159 78.2266 288.557 78.7552 288.812 79.4219C289.073 80.0885 289.203 80.8672 289.203 81.7578C289.203 82.612 289.062 83.3724 288.781 84.0391C288.5 84.7005 288.086 85.224 287.539 85.6094C286.997 85.9896 286.362 86.1797 285.633 86.1797C285.081 86.1797 284.562 86.0573 284.078 85.8125C283.594 85.5625 283.206 85.2344 282.914 84.8281C282.945 85.3906 282.961 85.9375 282.961 86.4688V89.6328L281.656 89.7188ZM285.453 85.0781C285.849 85.0781 286.203 84.9896 286.516 84.8125C286.828 84.6302 287.081 84.3828 287.273 84.0703C287.466 83.7578 287.612 83.4036 287.711 83.0078C287.81 82.6068 287.859 82.1745 287.859 81.7109C287.859 80.7318 287.654 79.9297 287.242 79.3047C286.831 78.6745 286.229 78.3594 285.438 78.3594C283.781 78.3594 282.953 79.4297 282.953 81.5703C282.953 82.7318 283.146 83.6068 283.531 84.1953C283.922 84.7839 284.562 85.0781 285.453 85.0781ZM293.352 86.1562C292.518 86.1562 291.927 85.9323 291.578 85.4844C291.234 85.0365 291.062 84.2578 291.062 83.1484V74.1016L292.359 74.0234V82.6328C292.359 82.987 292.362 83.2708 292.367 83.4844C292.378 83.6979 292.398 83.9089 292.43 84.1172C292.461 84.3203 292.503 84.474 292.555 84.5781C292.607 84.6823 292.682 84.7786 292.781 84.8672C292.88 84.9505 292.997 85.0078 293.133 85.0391C293.273 85.0651 293.445 85.0781 293.648 85.0781C293.815 85.0781 294.143 85.0469 294.633 84.9844L294.703 86.0234C294.167 86.112 293.716 86.1562 293.352 86.1562ZM296.453 81.7344C296.453 82.75 296.677 83.5651 297.125 84.1797C297.578 84.7891 298.237 85.0938 299.102 85.0938C299.956 85.0938 300.599 84.7891 301.031 84.1797C301.469 83.5703 301.688 82.75 301.688 81.7188C301.688 80.6719 301.471 79.849 301.039 79.25C300.612 78.6458 299.958 78.3438 299.078 78.3438C298.224 78.3438 297.573 78.651 297.125 79.2656C296.677 79.8802 296.453 80.7031 296.453 81.7344ZM303.039 81.7109C303.039 83.0391 302.685 84.1172 301.977 84.9453C301.268 85.7682 300.289 86.1797 299.039 86.1797C297.836 86.1797 296.878 85.763 296.164 84.9297C295.456 84.0964 295.102 83.026 295.102 81.7188C295.102 80.3854 295.458 79.3073 296.172 78.4844C296.885 77.6615 297.865 77.25 299.109 77.25C300.333 77.25 301.294 77.6641 301.992 78.4922C302.69 79.3151 303.039 80.388 303.039 81.7109ZM307.242 85.125C307.862 85.125 308.406 84.9557 308.875 84.6172C309.349 84.2734 309.654 83.8125 309.789 83.2344V81.7891C309.763 81.7891 309.604 81.8021 309.312 81.8281C309.026 81.8542 308.839 81.8698 308.75 81.875C307.62 81.974 306.831 82.1589 306.383 82.4297C305.94 82.7005 305.719 83.1354 305.719 83.7344C305.719 84.1927 305.854 84.5391 306.125 84.7734C306.396 85.0078 306.768 85.125 307.242 85.125ZM310.078 86C310 85.6667 309.924 85.3073 309.852 84.9219C309.378 85.3958 308.932 85.724 308.516 85.9062C308.099 86.0885 307.609 86.1797 307.047 86.1797C306.245 86.1797 305.599 85.9714 305.109 85.5547C304.625 85.1328 304.383 84.5286 304.383 83.7422C304.383 82.8672 304.714 82.2188 305.375 81.7969C306.042 81.375 307 81.112 308.25 81.0078C308.422 80.9922 308.68 80.9714 309.023 80.9453C309.372 80.9141 309.633 80.8906 309.805 80.875V80.1172C309.805 79.513 309.664 79.0651 309.383 78.7734C309.102 78.4818 308.659 78.3359 308.055 78.3359C307.211 78.3359 306.359 78.5443 305.5 78.9609C305.474 78.8984 305.406 78.7188 305.297 78.4219C305.188 78.1198 305.13 77.9635 305.125 77.9531C305.505 77.7396 305.956 77.5703 306.477 77.4453C307.003 77.3151 307.536 77.25 308.078 77.25C309.146 77.25 309.914 77.4844 310.383 77.9531C310.857 78.4167 311.094 79.2083 311.094 80.3281V86H310.078ZM316.688 85.0547C317.547 85.0547 318.185 84.7786 318.602 84.2266C319.023 83.6745 319.234 82.8854 319.234 81.8594C319.234 80.7031 319.031 79.8333 318.625 79.25C318.224 78.6615 317.573 78.3672 316.672 78.3672C316.271 78.3672 315.917 78.4531 315.609 78.625C315.302 78.7969 315.055 79.0365 314.867 79.3438C314.68 79.651 314.536 80.0052 314.438 80.4062C314.344 80.8021 314.297 81.237 314.297 81.7109C314.297 82.3776 314.378 82.9557 314.539 83.4453C314.706 83.9349 314.971 84.3255 315.336 84.6172C315.701 84.9089 316.151 85.0547 316.688 85.0547ZM319.258 84.7578C318.977 85.1901 318.602 85.5339 318.133 85.7891C317.664 86.0443 317.141 86.1719 316.562 86.1719C315.432 86.1719 314.547 85.7708 313.906 84.9688C313.266 84.1615 312.945 83.0651 312.945 81.6797C312.945 80.3568 313.271 79.2891 313.922 78.4766C314.573 77.6589 315.445 77.25 316.539 77.25C317.107 77.25 317.641 77.375 318.141 77.625C318.646 77.8698 319.023 78.2005 319.273 78.6172L319.25 77.875V74.1016L320.539 74.0234V86H319.43L319.258 84.7578Z" fill="#2E2E2E"/>
<rect x="0.5" y="0.5" width="559" height="159" rx="5.5" stroke="#D3D3D3" stroke-dasharray="4 4"/>
</svg>
