<svg width="296" height="150" viewBox="0 0 296 150" fill="none" xmlns="http://www.w3.org/2000/svg">
<rect x="0.5" y="0.5" width="295" height="149" rx="5.5" fill="#F7F7F7"/>
<path d="M129 82C129 82.5304 128.789 83.0391 128.414 83.4142C128.039 83.7893 127.53 84 127 84H109C108.47 84 107.961 83.7893 107.586 83.4142C107.211 83.0391 107 82.5304 107 82V71C107 70.4696 107.211 69.9609 107.586 69.5858C107.961 69.2107 108.47 69 109 69H113L115 66H121L123 69H127C127.53 69 128.039 69.2107 128.414 69.5858C128.789 69.9609 129 70.4696 129 71V82Z" stroke="black" stroke-linecap="round" stroke-linejoin="round"/>
<path d="M118 80C120.209 80 122 78.2091 122 76C122 73.7909 120.209 72 118 72C115.791 72 114 73.7909 114 76C114 78.2091 115.791 80 118 80Z" stroke="black" stroke-linecap="round" stroke-linejoin="round"/>
<path d="M148.281 69.4453V76.9453C148.281 78.2734 147.917 79.3099 147.188 80.0547C146.464 80.7995 145.359 81.1719 143.875 81.1719C142.391 81.1719 141.294 80.7995 140.586 80.0547C139.878 79.3099 139.523 78.2682 139.523 76.9297V69.4453H140.883V76.9531C140.883 78 141.13 78.7708 141.625 79.2656C142.12 79.7604 142.885 80.0078 143.922 80.0078C144.932 80.0078 145.685 79.7578 146.18 79.2578C146.68 78.7578 146.93 77.987 146.93 76.9453V69.4453H148.281ZM150.656 84.7188V72.4297H151.805L151.93 73.5938C152.68 72.6979 153.581 72.25 154.633 72.25C155.414 72.25 156.076 72.4453 156.617 72.8359C157.159 73.2266 157.557 73.7552 157.812 74.4219C158.073 75.0885 158.203 75.8672 158.203 76.7578C158.203 77.612 158.062 78.3724 157.781 79.0391C157.5 79.7005 157.086 80.224 156.539 80.6094C155.997 80.9896 155.362 81.1797 154.633 81.1797C154.081 81.1797 153.562 81.0573 153.078 80.8125C152.594 80.5625 152.206 80.2344 151.914 79.8281C151.945 80.3906 151.961 80.9375 151.961 81.4688V84.6328L150.656 84.7188ZM154.453 80.0781C154.849 80.0781 155.203 79.9896 155.516 79.8125C155.828 79.6302 156.081 79.3828 156.273 79.0703C156.466 78.7578 156.612 78.4036 156.711 78.0078C156.81 77.6068 156.859 77.1745 156.859 76.7109C156.859 75.7318 156.654 74.9297 156.242 74.3047C155.831 73.6745 155.229 73.3594 154.438 73.3594C152.781 73.3594 151.953 74.4297 151.953 76.5703C151.953 77.7318 152.146 78.6068 152.531 79.1953C152.922 79.7839 153.562 80.0781 154.453 80.0781ZM162.352 81.1562C161.518 81.1562 160.927 80.9323 160.578 80.4844C160.234 80.0365 160.062 79.2578 160.062 78.1484V69.1016L161.359 69.0234V77.6328C161.359 77.987 161.362 78.2708 161.367 78.4844C161.378 78.6979 161.398 78.9089 161.43 79.1172C161.461 79.3203 161.503 79.474 161.555 79.5781C161.607 79.6823 161.682 79.7786 161.781 79.8672C161.88 79.9505 161.997 80.0078 162.133 80.0391C162.273 80.0651 162.445 80.0781 162.648 80.0781C162.815 80.0781 163.143 80.0469 163.633 79.9844L163.703 81.0234C163.167 81.112 162.716 81.1562 162.352 81.1562ZM165.453 76.7344C165.453 77.75 165.677 78.5651 166.125 79.1797C166.578 79.7891 167.237 80.0938 168.102 80.0938C168.956 80.0938 169.599 79.7891 170.031 79.1797C170.469 78.5703 170.688 77.75 170.688 76.7188C170.688 75.6719 170.471 74.849 170.039 74.25C169.612 73.6458 168.958 73.3438 168.078 73.3438C167.224 73.3438 166.573 73.651 166.125 74.2656C165.677 74.8802 165.453 75.7031 165.453 76.7344ZM172.039 76.7109C172.039 78.0391 171.685 79.1172 170.977 79.9453C170.268 80.7682 169.289 81.1797 168.039 81.1797C166.836 81.1797 165.878 80.763 165.164 79.9297C164.456 79.0964 164.102 78.026 164.102 76.7188C164.102 75.3854 164.458 74.3073 165.172 73.4844C165.885 72.6615 166.865 72.25 168.109 72.25C169.333 72.25 170.294 72.6641 170.992 73.4922C171.69 74.3151 172.039 75.388 172.039 76.7109ZM176.242 80.125C176.862 80.125 177.406 79.9557 177.875 79.6172C178.349 79.2734 178.654 78.8125 178.789 78.2344V76.7891C178.763 76.7891 178.604 76.8021 178.312 76.8281C178.026 76.8542 177.839 76.8698 177.75 76.875C176.62 76.974 175.831 77.1589 175.383 77.4297C174.94 77.7005 174.719 78.1354 174.719 78.7344C174.719 79.1927 174.854 79.5391 175.125 79.7734C175.396 80.0078 175.768 80.125 176.242 80.125ZM179.078 81C179 80.6667 178.924 80.3073 178.852 79.9219C178.378 80.3958 177.932 80.724 177.516 80.9062C177.099 81.0885 176.609 81.1797 176.047 81.1797C175.245 81.1797 174.599 80.9714 174.109 80.5547C173.625 80.1328 173.383 79.5286 173.383 78.7422C173.383 77.8672 173.714 77.2188 174.375 76.7969C175.042 76.375 176 76.112 177.25 76.0078C177.422 75.9922 177.68 75.9714 178.023 75.9453C178.372 75.9141 178.633 75.8906 178.805 75.875V75.1172C178.805 74.513 178.664 74.0651 178.383 73.7734C178.102 73.4818 177.659 73.3359 177.055 73.3359C176.211 73.3359 175.359 73.5443 174.5 73.9609C174.474 73.8984 174.406 73.7188 174.297 73.4219C174.188 73.1198 174.13 72.9635 174.125 72.9531C174.505 72.7396 174.956 72.5703 175.477 72.4453C176.003 72.3151 176.536 72.25 177.078 72.25C178.146 72.25 178.914 72.4844 179.383 72.9531C179.857 73.4167 180.094 74.2083 180.094 75.3281V81H179.078ZM185.688 80.0547C186.547 80.0547 187.185 79.7786 187.602 79.2266C188.023 78.6745 188.234 77.8854 188.234 76.8594C188.234 75.7031 188.031 74.8333 187.625 74.25C187.224 73.6615 186.573 73.3672 185.672 73.3672C185.271 73.3672 184.917 73.4531 184.609 73.625C184.302 73.7969 184.055 74.0365 183.867 74.3438C183.68 74.651 183.536 75.0052 183.438 75.4062C183.344 75.8021 183.297 76.237 183.297 76.7109C183.297 77.3776 183.378 77.9557 183.539 78.4453C183.706 78.9349 183.971 79.3255 184.336 79.6172C184.701 79.9089 185.151 80.0547 185.688 80.0547ZM188.258 79.7578C187.977 80.1901 187.602 80.5339 187.133 80.7891C186.664 81.0443 186.141 81.1719 185.562 81.1719C184.432 81.1719 183.547 80.7708 182.906 79.9688C182.266 79.1615 181.945 78.0651 181.945 76.6797C181.945 75.3568 182.271 74.2891 182.922 73.4766C183.573 72.6589 184.445 72.25 185.539 72.25C186.107 72.25 186.641 72.375 187.141 72.625C187.646 72.8698 188.023 73.2005 188.273 73.6172L188.25 72.875V69.1016L189.539 69.0234V81H188.43L188.258 79.7578Z" fill="#2E2E2E"/>
<rect x="0.5" y="0.5" width="295" height="149" rx="5.5" stroke="#D3D3D3" stroke-dasharray="4 4"/>
</svg>
